# xmcd
#
# Track frame offsets: 
#        150
#        13172
#        26699
#        40160
#        54673
#        67619
#        81191
#        95989
#        108085
#        119603
#        130793
#        144554
#        158259
#        170020
#        181677
#        192728
#        207819
#        217884
#        228604
#        238356
#
# Disc length: 3307 seconds
#
# Revision: 0
# Processed by: cddbd v1.5.2PL0 Copyright (c) Steve Scherf et al.
# Submitted via: ExactAudioCopy v0.99pb5
#
DISCID=180ce914
DTITLE=Professor Longhair - Alligator
DYEAR=1900
DGENRE=R&B
TTITLE0=She Ain't Go No Hair
TTITLE1=Hey Now Baby
TTITLE2=Mardi Gras In New Orleans
TTITLE3=She Walks Right In
TTITLE4=Willie Mae
TTITLE5=Walk Your Blues Away
TTITLE6=Longhair Blues Rhumba
TTITLE7=Longhair Stomp
TTITLE8=Her Mind Is Gone
TTITLE9=Bald Head
TTITLE10=Oh Well
TTITLE11=Been Foolin' Around
TTITLE12=In The Night
TTITLE13=Tipitina
TTITLE14=Ball The Wall
TTITLE15=Who's Been Foolin' You
TTITLE16=Gone So Long
TTITLE17=Cry Pretty Baby
TTITLE18=Lokka, No Hair
TTITLE19=Baby Let Me Hold Your Hand
EXTD=
EXTT0=
EXTT1=
EXTT2=
EXTT3=
EXTT4=
EXTT5=
EXTT6=
EXTT7=
EXTT8=
EXTT9=
EXTT10=
EXTT11=
EXTT12=
EXTT13=
EXTT14=
EXTT15=
EXTT16=
EXTT17=
EXTT18=
EXTT19=
PLAYORDER=
